<?xml version="1.0" encoding="UTF-8" standalone="no"?>
<!-- Created with Inkscape (http://www.inkscape.org/) -->

<svg
   xmlns:dc="http://purl.org/dc/elements/1.1/"
   xmlns:cc="http://creativecommons.org/ns#"
   xmlns:rdf="http://www.w3.org/1999/02/22-rdf-syntax-ns#"
   xmlns:svg="http://www.w3.org/2000/svg"
   xmlns="http://www.w3.org/2000/svg"
   xmlns:sodipodi="http://sodipodi.sourceforge.net/DTD/sodipodi-0.dtd"
   xmlns:inkscape="http://www.inkscape.org/namespaces/inkscape"
   width="512"
   height="512"
   viewBox="0 0 135.46667 135.46667"
   version="1.1"
   id="svg8"
   inkscape:version="0.92.5 (2060ec1f9f, 2020-04-08)"
   sodipodi:docname="icon.svg"
   inkscape:export-filename="/home/rosiney/Projects/lines-sh/docs/assets/logo.png"
   inkscape:export-xdpi="96"
   inkscape:export-ydpi="96">
  <defs
     id="defs2" />
  <sodipodi:namedview
     id="base"
     pagecolor="#ffffff"
     bordercolor="#666666"
     borderopacity="1.0"
     inkscape:pageopacity="0.0"
     inkscape:pageshadow="2"
     inkscape:zoom="0.98994949"
     inkscape:cx="584.61385"
     inkscape:cy="427.88071"
     inkscape:document-units="mm"
     inkscape:current-layer="layer1"
     showgrid="false"
     units="px"
     inkscape:window-width="3768"
     inkscape:window-height="2093"
     inkscape:window-x="72"
     inkscape:window-y="30"
     inkscape:window-maximized="1">
    <inkscape:grid
       id="grid3713"
       type="xygrid" />
  </sodipodi:namedview>
  <metadata
     id="metadata5">
    <rdf:RDF>
      <cc:Work
         rdf:about="">
        <dc:format>image/svg+xml</dc:format>
        <dc:type
           rdf:resource="http://purl.org/dc/dcmitype/StillImage" />
        <dc:title></dc:title>
      </cc:Work>
    </rdf:RDF>
  </metadata>
  <g
     inkscape:label="Layer 1"
     inkscape:groupmode="layer"
     id="layer1"
     transform="translate(0,-161.53331)">
    <path
       d="m -207.16398,105.32535 v 247.90298 m 8.59055,-247.90298 v 247.90298 m 8.59053,-247.90298 v 247.90298 m 8.59054,-247.90298 v 247.90298 m 8.59055,-247.90298 v 247.90298 m 8.59053,-247.90298 v 247.90298 m 8.59055,-247.90298 v 247.90298 m 8.59055,-247.90298 v 247.90298 m 8.59053,-247.90298 v 247.90298 m 8.59054,-247.90298 v 247.90298 m 8.59054,-247.90298 v 247.90298 m 8.59055,-247.90298 v 247.90298 m 8.59054,-247.90298 v 247.90298 m 8.590536,-247.90298 v 247.90298 m 8.590542,-247.90298 v 247.90298 m 8.59054,-247.90298 v 247.90298 m 8.590542,-247.90298 v 247.90298 m 8.590542,-247.90298 v 247.90298 m 8.59054,-247.90298 v 247.90298 m 8.590533,-247.90298 v 247.90298 m 8.590547,-247.90298 v 247.90298 m 8.590546,-247.90298 v 247.90298 m 8.59053,-247.90298 V 353.22833 M -9.5815347,105.32535 V 353.22833 M -0.99098767,105.32535 V 353.22833 M 7.5995423,105.32535 V 353.22833 M 16.190088,105.32535 v 247.90298 m 8.590544,-247.90298 v 247.90298 m 8.590531,-247.90298 v 247.90298 m 8.59055,-247.90298 v 247.90298 m 8.59054,-247.90298 v 247.90298 m 8.59053,-247.90298 v 247.90298 m 8.59055,-247.90298 v 247.90298 m 8.59055,-247.90298 v 247.90298 m 8.59053,-247.90298 v 247.90298 m 8.59054,-247.90298 V 353.22833 M 102.0955,105.32535 v 247.90298 m 8.59053,-247.90298 v 247.90298 m 8.59055,-247.90298 v 247.90298 m 8.59054,-247.90298 v 247.90298 m 8.59053,-247.90298 v 247.90298 m 8.59055,-247.90298 v 247.90298 m 8.59055,-247.90298 v 247.90298 m 8.59053,-247.90298 v 247.90298 m 8.59054,-247.90298 v 247.90298 m 8.59055,-247.90298 v 247.90298 m 8.59053,-247.90298 v 247.90298 m 8.59055,-247.90298 v 247.90298 m 8.59054,-247.90298 v 247.90298 m 8.59053,-247.90298 v 247.90298 m 8.59055,-247.90298 v 247.90298 m 8.59053,-247.90298 v 247.90298 m 8.59055,-247.90298 v 247.90298 m 8.59054,-247.90298 v 247.90298 m 8.59053,-247.90298 v 247.90298 m 8.59055,-247.90298 v 247.90298 m 8.59055,-247.90298 v 247.90298 m 8.59053,-247.90298 v 247.90298 m 8.59054,-247.90298 v 247.90298 m 8.59055,-247.90298 v 247.90298 m 8.59053,-247.90298 v 247.90298 m 8.59055,-247.90298 v 247.90298 m 8.59054,-247.90298 v 247.90298 m 8.59053,-247.90298 v 247.90298 m 8.59055,-247.90298 V 353.22833 M -207.16398,105.32535 h 549.79462 m -549.79462,7.74697 h 549.79462 m -549.79462,7.74696 h 549.79462 m -549.79462,7.74698 h 549.79462 m -549.79462,7.74697 h 549.79462 m -549.79462,7.74696 h 549.79462 m -549.79462,7.74697 h 549.79462 m -549.79462,7.74698 h 549.79462 m -549.79462,7.74696 h 549.79462 m -549.79462,7.74697 h 549.79462 m -549.79462,7.74697 h 549.79462 m -549.79462,7.74696 h 549.79462 m -549.79462,7.74697 h 549.79462 m -549.79462,7.74696 h 549.79462 m -549.79462,7.74698 h 549.79462 m -549.79462,7.74697 h 549.79462 m -549.79462,7.74696 h 549.79462 m -549.79462,7.74697 h 549.79462 m -549.79462,7.74697 h 549.79462 m -549.79462,7.74696 h 549.79462 m -549.79462,7.74697 h 549.79462 m -549.79462,7.74698 h 549.79462 m -549.79462,7.74696 h 549.79462 m -549.79462,7.74697 h 549.79462 m -549.79462,7.74697 h 549.79462 m -549.79462,7.74696 h 549.79462 m -549.79462,7.74697 h 549.79462 m -549.79462,7.74698 h 549.79462 m -549.79462,7.74696 h 549.79462 m -549.79462,7.74697 h 549.79462 m -549.79462,7.74697 h 549.79462 m -549.79462,7.74696 h 549.79462"
       style="fill:none;stroke:#000000;stroke-width:0.04078924px"
       id="path4062"
       inkscape:connector-curvature="0"
       inkscape:export-xdpi="96"
       inkscape:export-ydpi="96" />
    <g
       id="g3815"
       transform="matrix(7.8573978,0,0,7.8573978,15.75992,-862.21568)">
      <path
         inkscape:connector-curvature="0"
         id="path3776"
         d="m 1.3229166,135.60414 v 5.29167 h 1.3229167"
         style="fill:none;stroke:#000000;stroke-width:0.26458332px;stroke-linecap:butt;stroke-linejoin:miter;stroke-opacity:1" />
      <path
         inkscape:connector-curvature="0"
         id="path3778"
         d="m 3.96875,135.60414 v 5.29167"
         style="fill:none;stroke:#000000;stroke-width:0.26458332px;stroke-linecap:butt;stroke-linejoin:miter;stroke-opacity:1" />
      <path
         inkscape:connector-curvature="0"
         id="path3780"
         d="m 5.2916666,140.89581 v -5.29167 h 1.3229167 v 5.29167"
         style="fill:none;stroke:#000000;stroke-width:0.26458332px;stroke-linecap:butt;stroke-linejoin:miter;stroke-opacity:1" />
      <path
         inkscape:connector-curvature="0"
         id="path3782"
         d="M 9.2604166,140.89581 H 7.9374999 l 1e-7,-5.29167 h 1.3229167"
         style="fill:none;stroke:#000000;stroke-width:0.26458332px;stroke-linecap:butt;stroke-linejoin:miter;stroke-opacity:1" />
      <path
         inkscape:connector-curvature="0"
         id="path3784"
         d="M 7.9374999,138.24997 H 9.2604166"
         style="fill:none;stroke:#000000;stroke-width:0.26458332px;stroke-linecap:butt;stroke-linejoin:miter;stroke-opacity:1" />
      <path
         inkscape:connector-curvature="0"
         id="path3790"
         d="m 11.90625,135.60414 h -1.322917 v 2.64583 h 1.322917 v 2.64584 h -1.322917"
         style="fill:none;stroke:#000000;stroke-width:0.26458332px;stroke-linecap:butt;stroke-linejoin:miter;stroke-opacity:1" />
      <path
         inkscape:connector-curvature="0"
         id="path3806"
         d="M 0,142.21872 H 13.229167"
         style="fill:none;stroke:#000000;stroke-width:0.26458332px;stroke-linecap:butt;stroke-linejoin:miter;stroke-opacity:1" />
    </g>
  </g>
</svg>
