<?xml version="1.0" encoding="UTF-8" standalone="no"?>
<!-- Created with Inkscape (http://www.inkscape.org/) -->

<svg
   xmlns:dc="http://purl.org/dc/elements/1.1/"
   xmlns:cc="http://creativecommons.org/ns#"
   xmlns:rdf="http://www.w3.org/1999/02/22-rdf-syntax-ns#"
   xmlns:svg="http://www.w3.org/2000/svg"
   xmlns="http://www.w3.org/2000/svg"
   xmlns:sodipodi="http://sodipodi.sourceforge.net/DTD/sodipodi-0.dtd"
   xmlns:inkscape="http://www.inkscape.org/namespaces/inkscape"
   width="1280"
   height="640"
   viewBox="0 0 338.66666 169.33334"
   version="1.1"
   id="svg8"
   inkscape:version="0.92.5 (2060ec1f9f, 2020-04-08)"
   sodipodi:docname="logo.svg"
   inkscape:export-filename="/home/rosiney/Projects/lines-sh/docs/assets/logo.png"
   inkscape:export-xdpi="96"
   inkscape:export-ydpi="96">
  <defs
     id="defs2" />
  <sodipodi:namedview
     id="base"
     pagecolor="#ffffff"
     bordercolor="#666666"
     borderopacity="1.0"
     inkscape:pageopacity="0.0"
     inkscape:pageshadow="2"
     inkscape:zoom="0.98994949"
     inkscape:cx="135.60104"
     inkscape:cy="427.88071"
     inkscape:document-units="mm"
     inkscape:current-layer="layer1"
     showgrid="false"
     units="px"
     inkscape:window-width="3768"
     inkscape:window-height="2093"
     inkscape:window-x="72"
     inkscape:window-y="30"
     inkscape:window-maximized="1">
    <inkscape:grid
       id="grid3713"
       type="xygrid" />
  </sodipodi:namedview>
  <metadata
     id="metadata5">
    <rdf:RDF>
      <cc:Work
         rdf:about="">
        <dc:format>image/svg+xml</dc:format>
        <dc:type
           rdf:resource="http://purl.org/dc/dcmitype/StillImage" />
        <dc:title></dc:title>
      </cc:Work>
    </rdf:RDF>
  </metadata>
  <g
     inkscape:label="Layer 1"
     inkscape:groupmode="layer"
     id="layer1"
     transform="translate(0,-127.66664)">
    <path
       d="M -140.30902,75.644141 V 323.54712 m 8.59055,-247.902979 V 323.54712 m 8.59053,-247.902979 V 323.54712 M -114.5374,75.644141 V 323.54712 m 8.59055,-247.902979 V 323.54712 M -97.356321,75.644141 V 323.54712 M -88.765774,75.644141 V 323.54712 M -80.175228,75.644141 V 323.54712 m 8.59053,-247.902979 V 323.54712 M -62.994149,75.644141 V 323.54712 m 8.59054,-247.902979 V 323.54712 M -45.813068,75.644141 V 323.54712 M -37.222527,75.644141 V 323.54712 m 8.59054,-247.902979 V 323.54712 M -20.041445,75.644141 V 323.54712 m 8.59054,-247.902979 V 323.54712 M -2.8603632,75.644141 V 323.54712 M 5.7301785,75.644141 V 323.54712 M 14.320719,75.644141 V 323.54712 M 22.911252,75.644141 V 323.54712 M 31.501799,75.644141 V 323.54712 M 40.092345,75.644141 V 323.54712 M 48.682875,75.644141 V 323.54712 M 57.273422,75.644141 V 323.54712 M 65.863969,75.644141 V 323.54712 M 74.454499,75.644141 V 323.54712 M 83.045045,75.644141 V 323.54712 M 91.635589,75.644141 V 323.54712 M 100.22612,75.644141 V 323.54712 M 108.81667,75.644141 V 323.54712 M 117.40721,75.644141 V 323.54712 M 125.99774,75.644141 V 323.54712 M 134.58829,75.644141 V 323.54712 M 143.17884,75.644141 V 323.54712 M 151.76937,75.644141 V 323.54712 M 160.35991,75.644141 V 323.54712 M 168.95046,75.644141 V 323.54712 M 177.54099,75.644141 V 323.54712 M 186.13154,75.644141 V 323.54712 M 194.72208,75.644141 V 323.54712 M 203.31261,75.644141 V 323.54712 M 211.90316,75.644141 V 323.54712 M 220.49371,75.644141 V 323.54712 M 229.08424,75.644141 V 323.54712 M 237.67478,75.644141 V 323.54712 M 246.26533,75.644141 V 323.54712 M 254.85586,75.644141 V 323.54712 M 263.44641,75.644141 V 323.54712 M 272.03695,75.644141 V 323.54712 M 280.62748,75.644141 V 323.54712 M 289.21803,75.644141 V 323.54712 M 297.80856,75.644141 V 323.54712 M 306.39911,75.644141 V 323.54712 M 314.98965,75.644141 V 323.54712 M 323.58018,75.644141 V 323.54712 M 332.17073,75.644141 V 323.54712 M 340.76128,75.644141 V 323.54712 M 349.35181,75.644141 V 323.54712 M 357.94235,75.644141 V 323.54712 M 366.5329,75.644141 V 323.54712 M 375.12343,75.644141 V 323.54712 M 383.71398,75.644141 V 323.54712 M 392.30452,75.644141 V 323.54712 M 400.89505,75.644141 V 323.54712 M 409.4856,75.644141 V 323.54712 M -140.30902,75.644141 H 409.4856 m -549.79462,7.746973 H 409.4856 m -549.79462,7.746959 H 409.4856 m -549.79462,7.746973 H 409.4856 m -549.79462,7.746974 H 409.4856 m -549.79462,7.74696 H 409.4856 m -549.79462,7.74697 H 409.4856 m -549.79462,7.74698 H 409.4856 m -549.79462,7.74696 H 409.4856 m -549.79462,7.74697 H 409.4856 m -549.79462,7.74697 H 409.4856 m -549.79462,7.74696 H 409.4856 m -549.79462,7.74697 H 409.4856 m -549.79462,7.74696 H 409.4856 m -549.79462,7.74698 H 409.4856 m -549.79462,7.74697 H 409.4856 m -549.79462,7.74696 H 409.4856 m -549.79462,7.74697 H 409.4856 m -549.79462,7.74697 H 409.4856 m -549.79462,7.74696 H 409.4856 m -549.79462,7.74697 H 409.4856 m -549.79462,7.74698 H 409.4856 m -549.79462,7.74696 H 409.4856 m -549.79462,7.74697 H 409.4856 m -549.79462,7.74697 H 409.4856 m -549.79462,7.74696 H 409.4856 m -549.79462,7.74697 H 409.4856 m -549.79462,7.74698 H 409.4856 m -549.79462,7.74696 H 409.4856 m -549.79462,7.74697 H 409.4856 m -549.79462,7.74697 H 409.4856 m -549.79462,7.74696 H 409.4856"
       style="fill:none;stroke:#000000;stroke-width:0.04078924px"
       id="path4062"
       inkscape:connector-curvature="0"
       inkscape:export-xdpi="96"
       inkscape:export-ydpi="96" />
    <g
       id="g3815"
       transform="matrix(9.7999998,0,0,9.7999998,104.51042,-1148.9987)">
      <path
         inkscape:connector-curvature="0"
         id="path3776"
         d="m 1.3229166,135.60414 v 5.29167 h 1.3229167"
         style="fill:none;stroke:#000000;stroke-width:0.26458332px;stroke-linecap:butt;stroke-linejoin:miter;stroke-opacity:1" />
      <path
         inkscape:connector-curvature="0"
         id="path3778"
         d="m 3.96875,135.60414 v 5.29167"
         style="fill:none;stroke:#000000;stroke-width:0.26458332px;stroke-linecap:butt;stroke-linejoin:miter;stroke-opacity:1" />
      <path
         inkscape:connector-curvature="0"
         id="path3780"
         d="m 5.2916666,140.89581 v -5.29167 h 1.3229167 v 5.29167"
         style="fill:none;stroke:#000000;stroke-width:0.26458332px;stroke-linecap:butt;stroke-linejoin:miter;stroke-opacity:1" />
      <path
         inkscape:connector-curvature="0"
         id="path3782"
         d="M 9.2604166,140.89581 H 7.9374999 l 1e-7,-5.29167 h 1.3229167"
         style="fill:none;stroke:#000000;stroke-width:0.26458332px;stroke-linecap:butt;stroke-linejoin:miter;stroke-opacity:1" />
      <path
         inkscape:connector-curvature="0"
         id="path3784"
         d="M 7.9374999,138.24997 H 9.2604166"
         style="fill:none;stroke:#000000;stroke-width:0.26458332px;stroke-linecap:butt;stroke-linejoin:miter;stroke-opacity:1" />
      <path
         inkscape:connector-curvature="0"
         id="path3790"
         d="m 11.90625,135.60414 h -1.322917 v 2.64583 h 1.322917 v 2.64584 h -1.322917"
         style="fill:none;stroke:#000000;stroke-width:0.26458332px;stroke-linecap:butt;stroke-linejoin:miter;stroke-opacity:1" />
      <path
         inkscape:connector-curvature="0"
         id="path3806"
         d="M 0,142.21872 H 13.229167"
         style="fill:none;stroke:#000000;stroke-width:0.26458332px;stroke-linecap:butt;stroke-linejoin:miter;stroke-opacity:1" />
    </g>
  </g>
</svg>
